<svg xmlns="http://www.w3.org/2000/svg" xmlns:xlink="http://www.w3.org/1999/xlink" 
	 width="595.3px" height="299.1px" viewBox="0 271.4 595.3 299.1">

	 <title>Buzón de correos</title>
<path fill="#FEE470" d="M0,271.4h595.3v299.1H0V271.4z"/>
<g>
	<path fill="none" stroke="#95A5A6" stroke-width="7" d="M239.8,430.6H146"/>
	<path fill="none" stroke="#95A5A6" stroke-width="9" d="M343.2,525.9v-92.8"/>
	<path fill="none" stroke="#6D7575" stroke-width="15" d="M343.2,446.3v-13.2"/>
	<path fill="#34495E" d="M440.8,433.9h-207c0,0,0.2-92,2.5-98.9c1.5,0,198.3-0.1,199.4,0C442.2,336.1,440.8,433.9,440.8,433.9z"/>
	<path fill="#2C3E50" d="M440.8,433.9h-207c0,0,200.8-99,201.9-98.9C442.2,336.1,440.8,433.9,440.8,433.9z"/>
	<path fill="#47C9AF" d="M174.6,391.2l49.8,29.5v-62.4L174.6,391.2z"/>
	<path fill="#16A085" d="M125.9,358.3v62.4h98.9L125.9,358.3z"/>
	<path fill="none" stroke="#E74C3C" stroke-width="8" d="M250.8,305.8h42.4 M256.9,389.1v-86.2"/>
	<path fill="#47C9AF" d="M180,387.8l-54.2-29.5v62.4L180,387.8z"/>
	<path fill="#237C6B" d="M224.5,358.3l-47.5,34.6l-51.1-34.6"/>
	<path fill="#2C3E50" d="M253.8,380.5h6.5v6.5h-6.5V380.5z"/>
</g>
</svg>
